<svg xmlns="http://www.w3.org/2000/svg" width="44.695" height="46.639" viewBox="0 0 44.695 46.639">
  <defs>
    <style>
      .cls-1 {
        fill: #e53935;
      }

      .cls-2 {
        fill: #d32f2f;
      }

      .cls-3 {
        fill: #46e94c;
      }

      .cls-4 {
        fill: #3fbf45;
      }
    </style>
  </defs>
  <g id="Group_55" data-name="Group 55" transform="translate(0)">
    <path id="Path_3" data-name="Path 3" class="cls-1" d="M39.815,106.667h-13.6c-5.321,0-15.546,7.384-15.546,17.489,0,10.534,10.235,19.433,22.348,19.433s22.348-8.9,22.348-19.433C55.361,114.011,46.076,106.667,39.815,106.667Z" transform="translate(-10.666 -96.951)"/>
    <path id="Path_4" data-name="Path 4" class="cls-2" d="M71.794,304.518c-9.835,0-18.461-7.264-18.461-15.546a.972.972,0,0,1,1.943,0c0,7.246,7.719,13.6,16.518,13.6a.972.972,0,1,1,0,1.943Z" transform="translate(-49.446 -261.766)"/>
    <path id="Path_5" data-name="Path 5" class="cls-3" d="M159.029,90.843c-.921-2.219-4.491-5.523-10.56-5.523a12.243,12.243,0,0,0-10.589,5.8,1.444,1.444,0,0,0,.194,1.691c.777.777,2.005.319,4.038-.451a22.205,22.205,0,0,1,3.486-1.108c.115,1.951.641,5.731,2.87,5.731s2.756-3.78,2.878-5.731a22.2,22.2,0,0,1,3.486,1.108c2.033.777,3.261,1.23,4.038.451A1.677,1.677,0,0,0,159.029,90.843Z" transform="translate(-126.122 -77.547)"/>
    <path id="Path_6" data-name="Path 6" class="cls-4" d="M246.3,9.716a.972.972,0,0,1-.972-.972A8.871,8.871,0,0,1,254.078,0a.972.972,0,0,1,0,1.943,6.9,6.9,0,0,0-6.8,6.8A.972.972,0,0,1,246.3,9.716Z" transform="translate(-223.957)"/>
  </g>
</svg>
